<svg width="24" height="24" viewBox="0 0 24 24" fill="none" xmlns="http://www.w3.org/2000/svg">
<g clip-path="url(#clip0_0_151)">
<path d="M17.5391 7H6.46093C6.28805 6.99998 6.12113 7.06164 5.99159 7.17337C5.86205 7.2851 5.77882 7.43919 5.75759 7.60664L4.50477 19.7337C4.49318 19.8304 4.50276 19.9283 4.53288 20.021C4.563 20.1137 4.61297 20.1991 4.67947 20.2716C4.74598 20.344 4.8275 20.4019 4.91864 20.4412C5.00977 20.4806 5.10844 20.5006 5.20811 20.5H18.7919C18.8916 20.5006 18.9902 20.4806 19.0814 20.4412C19.1725 20.4019 19.254 20.344 19.3205 20.2716C19.387 20.1991 19.437 20.1137 19.4671 20.021C19.4972 19.9283 19.5068 19.8304 19.4952 19.7337L18.2424 7.60664C18.2212 7.43919 18.138 7.2851 18.0084 7.17337C17.8789 7.06164 17.712 6.99998 17.5391 7Z" stroke="#010101" stroke-linecap="round" stroke-linejoin="round"/>
<path d="M9 7V6.75C9 5.75544 9.34241 4.80161 9.9519 4.09835C10.5614 3.39509 11.388 3 12.25 3C13.112 3 13.9386 3.39509 14.5481 4.09835C15.1576 4.80161 15.5 5.75544 15.5 6.75V7" stroke="#010101" stroke-linecap="round" stroke-linejoin="round"/>
</g>
<defs>
<clipPath id="clip0_0_151">
<rect width="24" height="24" fill="white"/>
</clipPath>
</defs>
</svg>
