<svg width="24" height="24" viewBox="0 0 24 24" fill="none" xmlns="http://www.w3.org/2000/svg">
<path d="M19.1643 5.41452C18.7503 4.96607 18.2588 4.61034 17.7179 4.36763C17.177 4.12492 16.5972 4 16.0116 4C15.426 4 14.8462 4.12492 14.3053 4.36763C13.7643 4.61034 13.2728 4.96607 12.8588 5.41452L11.9998 6.34476L11.1407 5.41452C10.3046 4.50912 9.17049 4.00047 7.98801 4.00047C6.80551 4.00047 5.67145 4.50912 4.83531 5.41452C3.99916 6.31991 3.52942 7.5479 3.52942 8.82833C3.52942 10.1088 3.99916 11.3367 4.83531 12.2421L5.6944 13.1724L11.9998 20L18.3052 13.1724L19.1643 12.2421C19.5784 11.7939 19.907 11.2617 20.1311 10.676C20.3552 10.0902 20.4706 9.46237 20.4706 8.82833C20.4706 8.19428 20.3552 7.56644 20.1311 6.98069C19.907 6.39494 19.5784 5.86275 19.1643 5.41452Z" stroke="#010101"/>
</svg>
